<?xml version="1.0" encoding="UTF-8" standalone="no"?>
<svg
   width="32"
   height="32"
   viewBox="0 0 32 32"
   fill="none"
   version="1.1"
   id="svg1"
   sodipodi:docname="Enemy.svg"
   inkscape:version="1.3 (0e150ed, 2023-07-21)"
   xmlns:inkscape="http://www.inkscape.org/namespaces/inkscape"
   xmlns:sodipodi="http://sodipodi.sourceforge.net/DTD/sodipodi-0.dtd"
   xmlns="http://www.w3.org/2000/svg"
   xmlns:svg="http://www.w3.org/2000/svg">
  <defs
     id="defs1">
    <inkscape:path-effect
       effect="fillet_chamfer"
       id="path-effect1"
       is_visible="true"
       lpeversion="1"
       nodesatellites_param="F,0,1,1,0,2.2303245,0,1 @ F,0,1,1,0,2.2303245,0,1 @ F,0,1,1,0,2.2303245,0,1 @ F,0,1,1,0,2.2303245,0,1 @ F,0,1,1,0,2.2303245,0,1 @ F,0,1,1,0,2.2303245,0,1 @ F,0,1,1,0,2.2303245,0,1 @ F,0,1,1,0,2.2303245,0,1 @ F,0,1,1,0,2.2303245,0,1 @ F,0,1,1,0,2.2303245,0,1 @ F,0,1,1,0,2.2303245,0,1 @ F,0,1,1,0,2.2303245,0,1 @ F,0,1,1,0,2.2303245,0,1 @ F,0,1,1,0,2.2303245,0,1 @ F,0,0,1,0,2.2303245,0,1 @ F,0,1,1,0,2.2303245,0,1 @ F,0,1,1,0,2.2303245,0,1 @ F,0,1,1,0,2.2303245,0,1 @ F,0,1,1,0,2.2303245,0,1 @ F,0,1,1,0,2.2303245,0,1 @ F,0,1,1,0,2.2303245,0,1 @ F,0,1,1,0,2.2303245,0,1 @ F,0,1,1,0,2.2303245,0,1 @ F,0,1,1,0,2.2303245,0,1"
       radius="0"
       unit="px"
       method="auto"
       mode="F"
       chamfer_steps="1"
       flexible="false"
       use_knot_distance="true"
       apply_no_radius="true"
       apply_with_radius="true"
       only_selected="false"
       hide_knots="false" />
  </defs>
  <sodipodi:namedview
     id="namedview1"
     pagecolor="#505050"
     bordercolor="#eeeeee"
     borderopacity="1"
     inkscape:showpageshadow="0"
     inkscape:pageopacity="0"
     inkscape:pagecheckerboard="0"
     inkscape:deskcolor="#505050"
     inkscape:zoom="16.036029"
     inkscape:cx="19.674446"
     inkscape:cy="19.799165"
     inkscape:window-width="1860"
     inkscape:window-height="1062"
     inkscape:window-x="48"
     inkscape:window-y="6"
     inkscape:window-maximized="1"
     inkscape:current-layer="svg1" />
  <path
     rx="0"
     ry="0"
     fill="#ffffff"
     d="m 16.84287,29.935074 0.902451,-2.21089 A 1.6931849,1.6931849 165 0 1 20.3506,27.026101 l 1.88699,1.463462 a 0.91038317,0.91038317 150 0 0 1.459894,-0.84287 l -0.3239,-2.365912 a 1.6931849,1.6931849 135 0 1 1.907197,-1.907197 l 2.365912,0.3239 a 0.91038317,0.91038317 120 0 0 0.84287,-1.459894 L 27.026101,20.3506 a 1.6931849,1.6931849 105 0 1 0.698083,-2.605279 l 2.21089,-0.902451 a 0.91038317,0.91038317 90 0 0 0,-1.68574 l -2.21089,-0.902451 A 1.6931849,1.6931849 75 0 1 27.026101,11.6494 L 28.489563,9.7624096 A 0.91038317,0.91038317 60 0 0 27.646693,8.302516 l -2.365912,0.3239002 a 1.6931849,1.6931849 45 0 1 -1.907197,-1.907197 l 0.3239,-2.3659127 A 0.91038317,0.91038317 30 0 0 22.23759,3.5104366 L 20.3506,4.9738987 A 1.6931849,1.6931849 15 0 1 17.745321,4.2758162 L 16.84287,2.0649256 a 0.91038317,0.91038317 0 0 0 -1.68574,0 L 14.254679,4.2758162 A 1.6931849,1.6931849 165 0 1 11.6494,4.9738987 L 9.7624096,3.5104366 A 0.91038317,0.91038317 150 0 0 8.302516,4.3533065 l 0.3239002,2.3659127 a 1.6931849,1.6931849 135 0 1 -1.907197,1.907197 L 4.3533065,8.302516 A 0.91038317,0.91038317 120 0 0 3.5104366,9.7624096 L 4.9738987,11.6494 A 1.6931849,1.6931849 105 0 1 4.2758162,14.254679 L 2.0649256,15.15713 a 0.91038317,0.91038317 90 0 0 0,1.68574 l 2.2108906,0.902451 A 1.6931849,1.6931849 75 0 1 4.9738987,20.3506 l -1.4634621,1.88699 a 0.91038317,0.91038317 60 0 0 0.8428699,1.459894 l 2.3659127,-0.3239 a 1.6931849,1.6931849 45 0 1 1.907197,1.907197 L 8.302516,27.646693 a 0.91038317,0.91038317 30 0 0 1.4598936,0.84287 L 11.6494,27.026101 a 1.6931849,1.6931849 15 0 1 2.605279,0.698083 l 0.902451,2.21089 a 0.91038317,0.91038317 0 0 0 1.68574,0 z"
     id="path1"
     inkscape:path-effect="#path-effect1"
     inkscape:original-d="M 16 32 L 18.588190451025206 25.65925826289068 L 24 29.85640646055102 L 23.071067811865476 23.071067811865476 L 29.856406460551018 24 L 25.65925826289068 18.58819045102521 L 32 16 L 25.65925826289068 13.411809548974794 L 29.85640646055102 8.000000000000004 L 23.071067811865476 8.928932188134524 L 24.000000000000007 2.1435935394489842 L 18.58819045102521 6.340741737109319 L 16.000000000000004 0 L 13.411809548974793 6.340741737109317 L 8.000000000000004 2.143593539448979 L 8.928932188134524 8.928932188134523 L 2.143593539448986 7.999999999999993 L 6.340741737109319 13.411809548974784 L 0 15.999999999999996 L 6.340741737109315 18.588190451025202 L 2.1435935394489753 23.99999999999999 L 8.928932188134517 23.07106781186547 L 7.999999999999993 29.856406460551014 L 13.411809548974784 25.65925826289068 Z" />
</svg>
